HIERARCHY
ROOT Root
{
	OFFSET 0.00000 0.00000 0.00000
	CHANNELS 6 Xposition Yposition Zposition Zrotation Xrotation Yrotation
	JOINT Hips
	{
		OFFSET 0 0 0	
		CHANNELS 3 Zrotation Xrotation Yrotation
		JOINT Spine1
		{
			OFFSET 0 4 0	
			CHANNELS 3 Zrotation Xrotation Yrotation
			JOINT Spine2
			{
				OFFSET 0 19.4 0	
				CHANNELS 3 Zrotation Xrotation Yrotation
				JOINT Spine3
				{
					OFFSET 0 16.6 0	
					CHANNELS 3 Zrotation Xrotation Yrotation
					JOINT LeftCollar
					{
						OFFSET 0 10 0	
						CHANNELS 3 Zrotation Xrotation Yrotation
						JOINT LeftArm
						{
							OFFSET 15.6 -2 0	
							CHANNELS 3 Zrotation Xrotation Yrotation
							JOINT LeftForeArm
							{
								OFFSET 2.6 -25.5 0	
								CHANNELS 3 Zrotation Xrotation Yrotation
								JOINT LeftHand
								{
									OFFSET 0.65 -31.1 0	
									CHANNELS 3 Zrotation Xrotation Yrotation
									End Site
									{
										OFFSET 0 -15 0
									}
								}
							}
						}
					}
					JOINT RightCollar
					{
						OFFSET 0 10 0	
						CHANNELS 3 Zrotation Xrotation Yrotation
						JOINT RightArm
						{
							OFFSET -15.6 -2 0	
							CHANNELS 3 Zrotation Xrotation Yrotation
							JOINT RightForeArm
							{
								OFFSET -2.6 -25.5 0	
								CHANNELS 3 Zrotation Xrotation Yrotation
								JOINT RightHand
								{
									OFFSET -0.65 -31.1 0	
									CHANNELS 3 Zrotation Xrotation Yrotation
									End Site
									{
										OFFSET 0 -15 0
									}
								}
							}
						}
					}
					JOINT Neck
					{
						OFFSET 0 10 0	
						CHANNELS 3 Zrotation Xrotation Yrotation
						JOINT Head
						{
							OFFSET 0 12.7 0	
							CHANNELS 3 Zrotation Xrotation Yrotation
							End Site
							{
								OFFSET 0 12.7 1.56
							}
						}
					}
				}
			}
		}
	}
	JOINT LeftHip
	{
		OFFSET 0 0 0	
		CHANNELS 3 Zrotation Xrotation Yrotation
		JOINT LeftUpLeg
		{
			OFFSET 8.8 -2 0	
			CHANNELS 3 Zrotation Xrotation Yrotation
			JOINT LeftLeg
			{
				OFFSET 0 -42.2 0	
				CHANNELS 3 Zrotation Xrotation Yrotation
				JOINT LeftFoot
				{
					OFFSET 0 -44.3 0	
					CHANNELS 3 Zrotation Xrotation Yrotation
					JOINT LeftFootFront
					{
						OFFSET 0 -4 10.47	
						CHANNELS 3 Zrotation Xrotation Yrotation
						End Site
						{
							OFFSET 0 -3.45 9.31
						}
					}
				}
				JOINT LeftHeel
				{
					OFFSET 0 -44.3 0	
					CHANNELS 3 Zrotation Xrotation Yrotation
					End Site
					{
						OFFSET 0 -6.35 -5.92
					}
				}
			}
		}
	}
	JOINT RightHip
	{
		OFFSET 0 0 0	
		CHANNELS 3 Zrotation Xrotation Yrotation
		JOINT RightUpLeg
		{
			OFFSET -8.8 -2 0	
			CHANNELS 3 Zrotation Xrotation Yrotation
			JOINT RightLeg
			{
				OFFSET 0 -42.2 0	
				CHANNELS 3 Zrotation Xrotation Yrotation
				JOINT RightFoot
				{
					OFFSET 0 -44.3 0	
					CHANNELS 3 Zrotation Xrotation Yrotation
					JOINT RightFootFront
					{
						OFFSET 0 -4 10.47	
						CHANNELS 3 Zrotation Xrotation Yrotation
						End Site
						{
							OFFSET 0 -3.45 9.31
						}
					}
				}
				JOINT RightHeel
				{
					OFFSET 0 -44.3 0	
					CHANNELS 3 Zrotation Xrotation Yrotation
					End Site
					{
						OFFSET 0 -6.35 -5.92
					}
				}
			}
		}
	}
}
MOTION
Frames: 9
Frame Time: 0.025
0 94.151 0 -0 0 -0 -7.6497 -8.1196 -3.5526 2.5191 2.8001 -2.015 4.1689 4.526 -3.3574 1.7527 1.9695 -1.3973 -0 0 -0 -3.1284 -8.0023 2.5624 2.4934 -19.199 -1.6768 1.0672e-07 2.3606e-16 2.5346e-07 -0 0 -0 -1.707 2.5527 -13.676 -5.9293 -0.55128 3.8393 0 0 -5.3361e-08 -0.35869 0.1632 3.809 -0.35869 0.1632 3.809 -7.6497 -8.1196 -3.5526 3.0634 11.151 10.114 6.5572 30.505 -11.116 -0 0 -0 -8.0695e-08 -34.778 -2.5767e-07 -0 0 -0 -7.6497 -8.1196 -3.5526 9.4802 -11.738 8.4619 3.62 8.9594 -6.7146 -0 0 -0 -0 0 -0 -0 0 -0 
0 93.942 0 -0 0 -0 -7.4046 -8.1351 -3.2262 2.5065 2.6593 -2.107 4.1474 4.2941 -3.5039 1.7439 1.8713 -1.4624 -0 0 -0 -3.3798 -6.8033 4.002 2.8193 -17.339 -1.6762 3.3351e-08 6.0907e-17 2.0927e-07 -0 0 -0 -1.8497 2.3392 -13.539 -5.9743 -0.20116 3.3048 0 0 -1.334e-07 -0.4276 0.45924 3.8228 -0.4276 0.45924 3.8228 -7.4046 -8.1351 -3.2262 4.3856 9.2526 7.9907 4.0096 35.421 -5.486 -0 0 -0 2.8935e-07 -37.533 1.8813e-07 -0 0 -0 -7.4046 -8.1351 -3.2262 9.205 -10.523 7.8629 3.6676 9.8678 -6.1113 -0 0 -0 -0 0 -0 -0 0 -0 
0 93.811 0 -0 0 -0 -6.7629 -7.7765 -2.4926 2.3576 2.3948 -2.2237 3.9008 3.8626 -3.6849 1.6403 1.686 -1.546 -0 0 -0 -3.2804 -5.5591 4.5546 3.2052 -15.508 -1.085 0 0 -4.0021e-08 -0 0 -0 -1.9811 2.0419 -13.352 -5.7236 -0.059982 2.9442 0 0 -6.6701e-08 -0.4124 0.75824 3.7143 -0.4124 0.75824 3.7143 -6.7629 -7.7765 -2.4926 5.9753 6.1341 5.5612 -0.28384 41.142 1.5293 -0 0 -0 1.6094e-08 -37.309 4.7673e-08 -0 0 -0 -6.7629 -7.7765 -2.4926 8.36 -8.9867 6.4017 3.8825 9.5451 -5.9996 -0 0 -0 -0 0 -0 -0 0 -0 
0 93.768 0 -0 0 -0 -6.076 -7.2726 -1.6373 2.1749 2.1142 -2.2992 3.5975 3.4068 -3.7982 1.5134 1.4891 -1.6008 -0 0 -0 -3.0425 -4.3899 4.4302 3.7253 -13.915 -0.33488 -0 0 2.1344e-07 -0 0 -0 -2.1296 1.6504 -13.183 -5.2132 -0.17788 2.9203 -0 0 6.6701e-07 -0.36159 0.97296 3.4946 -0.36159 0.97296 3.4946 -6.076 -7.2726 -1.6373 7.8307 2.3077 3.9702 -4.7186 46.972 6.7745 -0 0 -0 4.0506e-08 -28.168 1.6145e-07 -0 0 -0 -6.076 -7.2726 -1.6373 7.5841 -7.3674 5.3773 4.2201 8.6534 -6.7602 -0 0 -0 -0 0 -0 -0 0 -0 
0 93.815 0 -0 0 -0 -5.4272 -6.8359 -1.0127 1.9937 1.955 -2.2594 3.2971 3.1514 -3.7268 1.3873 1.3768 -1.5743 -0 0 -0 -2.8682 -3.6224 3.9807 4.461 -12.611 0.19301 0 0 -2.1344e-07 -0 0 -0 -2.3652 0.99482 -12.947 -4.4916 -0.54082 3.1569 0 0 -3.6352e-07 -0.30657 0.95877 3.2062 -0.30657 0.95877 3.2062 -5.4272 -6.8359 -1.0127 9.609 -1.6377 3.9642 -7.9112 52.621 9.2014 -0 0 -0 -3.3281e-07 -18.215 -5.335e-08 -0 0 -0 -5.4272 -6.8359 -1.0127 7 -6.0151 4.5971 4.5205 7.9797 -6.897 -0 0 -0 -0 0 9.3381e-08 -0 0 -0 
0 93.947 0 -0 0 -0 -4.7664 -6.3644 -0.85221 1.8101 1.9106 -2.065 2.993 3.0861 -3.4052 1.2597 1.3443 -1.439 -0 0 -0 -2.7998 -3.5192 3.5527 5.3406 -11.403 0.33935 0 0 -1.334e-07 -0 0 -0 -2.7167 -0.017247 -12.4 -3.6846 -1.04 3.4291 0 0 -3.5018e-07 -0.24899 0.6793 2.8994 -0.24899 0.6793 2.8994 -4.7664 -6.3644 -0.85221 10.903 -5.3767 5.2159 -10.025 57.667 10.275 -0 0 -0 1.7323e-08 -7.3838 2.6848e-07 -0 0 -0 -4.7664 -6.3644 -0.85221 6.4326 -4.964 4.4062 4.7751 7.5925 -6.0479 -0 0 -0 0 0 -1.334e-08 -0 0 -0 
0 94.151 0 -0 0 -0 -4.0285 -5.9386 -1.0289 1.6 1.9328 -1.7671 2.645 3.1308 -2.9153 1.1136 1.3582 -1.2312 -0 0 -0 -2.7733 -3.918 3.3641 6.2094 -10.147 0.18008 -0 0 -0 -0 0 -0 -3.1358 -1.2012 -11.312 -2.9876 -1.607 3.4122 0 0 -2.001e-07 -0.19188 0.30475 2.5918 -0.19188 0.30475 2.5918 -4.0285 -5.9386 -1.0289 11.47 -8.5939 6.1671 -12.782 61.162 13.06 -0 0 -0 0 0 -5.3361e-08 -0 0 -0 -4.0285 -5.9386 -1.0289 5.8873 -3.9388 4.9097 4.8116 7.3431 -5.0446 -0 0 -0 -0 0 -0 -0 0 -0 
0 94.407 0 -0 0 -0 -3.1642 -5.7624 -1.2988 1.3377 1.9961 -1.4336 2.2117 3.2425 -2.3666 0.93104 1.4008 -0.99851 -0 0 -0 -2.7201 -4.4097 3.425 6.9703 -8.9138 -0.0012006 -0 0 -0 -0 0 -0 -3.5415 -2.2881 -9.753 -2.5158 -2.2877 2.9139 -0 0 9.3381e-08 -0.15676 0.0486 2.2765 -0.15676 0.0486 2.2765 -3.1642 -5.7624 -1.2988 11.383 -11.095 5.7034 -17.219 62.483 18.854 -0 0 -0 2.1344e-07 2.9818e-16 1.6008e-07 -0 0 -0 -3.1642 -5.7624 -1.2988 5.3117 -2.5362 5.5803 4.5248 6.9965 -4.3498 -0 0 -0 0 0 -2.001e-08 -0 0 -0 
0 94.696 0 -0 0 -0 -2.2034 -5.7455 -1.5589 1.0338 2.0618 -1.0997 1.7099 3.357 -1.8162 0.71944 1.4453 -0.76577 -0 0 -0 -2.6014 -4.7488 3.6465 7.5425 -7.8869 0.1678 0 0 -1.0672e-07 -0 0 -0 -3.8822 -3.2495 -8.0131 -2.2238 -3.1321 2.0149 -0 0 2.668e-07 -0.15864 -0.031289 1.9678 -0.15864 -0.031289 1.9678 -2.2034 -5.7455 -1.5589 10.99 -13.087 3.9699 -22.523 61.628 26.327 -0 0 -0 -3.2017e-07 -1.4909e-16 5.3361e-08 -0 0 -0 -2.2034 -5.7455 -1.5589 4.6754 -0.97628 5.9889 3.9926 6.5989 -3.5379 -0 0 -0 1.3237e-09 -0.90957 1.6677e-07 -0 0 -0 
